<svg xmlns="http://www.w3.org/2000/svg"  viewBox="0 0 80 80" width="480px" height="480px" baseProfile="basic"><path fill="#bae0bd" d="M40,40v7.5l-5.625-1.875L8.425,19.862H8.403C4.684,25.684,2.5,32.581,2.5,40 c0,20.188,16.011,36.687,36,37.5l16.5-30L40,40z"/><path fill="#5e9c76" d="M38.789,78.012L38.479,78C18.024,77.168,2,60.477,2,40c0-7.226,2.068-14.282,5.981-20.407 l0.147-0.23h0.48l0.168,0.146l25.867,25.68l4.856,1.619v-7.615l16.188,8.094L38.789,78.012z M8.503,20.644 C4.901,26.487,3,33.166,3,40c0,19.835,15.442,36.022,35.211,36.986l16.1-29.271L40.5,40.809v7.385l-6.394-2.131l-0.083-0.083 L8.503,20.644z"/><path fill="#f5ce85" d="M40,2.5V40l15,7.5l-16.581,30h0.691c20.345,0,37.663-15.833,38.367-36.165 C78.216,20.001,60.777,2.753,40,2.5z"/><path fill="#ba9b48" d="M39.11,78h-1.539l16.739-30.286L39.5,40.309V1.994L40.006,2c10.31,0.126,20.334,4.507,27.505,12.021 c7.101,7.441,10.818,17.147,10.465,27.331C77.277,61.56,59.842,78,39.11,78z M40.5,39.691l15.189,7.595L39.267,77 c20.13-0.082,37.031-16.058,37.71-35.683c0.343-9.911-3.275-19.36-10.189-26.605C59.919,7.514,50.364,3.267,40.5,3.01V39.691z"/><path fill="#f78f8f" d="M73.45,23.25H40l0,24.25l-5.625-1.875L8.388,19.863C15.025,9.419,26.707,2.5,40,2.5 C54.625,2.5,67.281,11.025,73.45,23.25z"/><path fill="#c74343" d="M40.5,48.193l-6.394-2.131l-0.083-0.082L7.75,19.934l0.216-0.34C14.968,8.577,26.943,2,40,2 c14.363,0,27.352,8.057,33.896,21.024l0.366,0.726H40.5L40.5,48.193z M34.645,45.188l4.856,1.619l0-24.057h33.128 C66.142,10.546,53.715,3,40,3C27.422,3,15.874,9.27,9.027,19.792L34.645,45.188z"/><g><path fill="#fff" d="M57.5,40c0,9.662-7.838,17.5-17.5,17.5s-17.5-7.838-17.5-17.5S30.338,22.5,40,22.5 S57.5,30.338,57.5,40z"/><path fill="#788b9c" d="M40,58c-9.925,0-18-8.075-18-18s8.075-18,18-18c9.925,0,18,8.075,18,18S49.925,58,40,58z M40,23 c-9.374,0-17,7.626-17,17s7.626,17,17,17c9.374,0,17-7.626,17-17S49.374,23,40,23z"/></g><g><path fill="#8bb7f0" d="M51.5,40c0,6.353-5.147,11.5-11.5,11.5s-11.5-5.147-11.5-11.5S33.647,28.5,40,28.5 S51.5,33.647,51.5,40z"/><path fill="#4e7ab5" d="M40,52c-6.617,0-12-5.383-12-12s5.383-12,12-12s12,5.383,12,12S46.617,52,40,52z M40,29 c-6.065,0-11,4.935-11,11s4.935,11,11,11c6.065,0,11-4.935,11-11S46.065,29,40,29z"/></g></svg>